<svg xmlns="http://www.w3.org/2000/svg" width="32" height="32" fill="none" viewBox="0 0 32 32">
  <path fill="#00549D" fill-rule="evenodd" d="M15.269 2.19a1.498 1.498 0 0 1 1.462 0l11.204 6.29c.453.253.732.723.732 1.23v12.58c0 .508-.279.977-.732 1.231l-11.204 6.29a1.498 1.498 0 0 1-1.462 0L4.064 23.52a1.415 1.415 0 0 1-.73-1.23V9.71c0-.508.278-.977.73-1.231L15.27 2.19Z" clip-rule="evenodd"/>
  <path fill="#0086D4" fill-rule="evenodd" d="M3.536 22.936c-.177-.237-.203-.463-.203-.766V9.664c0-.505.278-.972.73-1.224l11.165-6.253a1.607 1.607 0 0 1 1.514.005c2.229 1.248 8.914 4.973 11.143 6.22.18.102.317.224.44.385L3.536 22.936Z" clip-rule="evenodd"/>
  <path fill="#fff" fill-rule="evenodd" d="M16 6.667c5.151 0 9.333 4.182 9.333 9.333S21.151 25.333 16 25.333 6.667 21.151 6.667 16 10.849 6.667 16 6.667Zm0 4.666A4.669 4.669 0 0 1 20.667 16 4.67 4.67 0 0 1 16 20.667 4.67 4.67 0 0 1 11.333 16 4.668 4.668 0 0 1 16 11.333Z" clip-rule="evenodd"/>
  <path fill="#0075C0" fill-rule="evenodd" d="M28.323 8.803c.344.322.338.808.338 1.19 0 2.53-.022 9.726.006 12.256a1.45 1.45 0 0 1-.216.751L15.73 16l12.594-7.197Z" clip-rule="evenodd"/>
  <path fill="#fff" fill-rule="evenodd" d="M20.667 14H22v4h-1.333v-4Zm4.666 0h1.334v4h-1.334v-4Z" clip-rule="evenodd"/>
  <path fill="#fff" fill-rule="evenodd" d="M19.333 15.333h4v1.334h-4v-1.334Zm4.667 0h4v1.334h-4v-1.334Z" clip-rule="evenodd"/>
</svg>
