<svg xmlns="http://www.w3.org/2000/svg" width="32" height="32" fill="none" viewBox="0 0 32 32">
  <path fill="#0277BD" d="M27.333 3.333H4.667l2 22.667L16 28.667 25.333 26l2-22.667Z"/>
  <path fill="#039BE5" d="M16 5.333V26.6l7.467-2.133 1.666-19.134H16Z"/>
  <path fill="#fff" d="M22.067 8.667H16v2.666h3.267l-.2 2.667H16v2.667h2.933l-.2 3L16 20.6v2.8l5.267-1.733.466-7.667.334-5.333Z"/>
  <path fill="#EEE" d="M16 8.667v2.666h-5.933l-.2-2.666H16ZM12.933 14l.134 2.667H16V14h-3.067Zm.267 4h-2.667l.2 3.667L16 23.4v-2.8l-2.733-.933L13.2 18Z"/>
</svg>
