<svg xmlns="http://www.w3.org/2000/svg" width="20" height="17" fill="currentColor" viewBox="0 0 20 17">
  <path d="M7.754 11.53c0 .87-.454 2.295-1.529 2.295s-1.53-1.425-1.53-2.296c0-.87.455-2.296 1.53-2.296s1.53 1.425 1.53 2.296ZM20 9.424c0 1.33-.133 2.737-.73 3.958-1.578 3.192-5.92 3.117-9.028 3.117-3.159 0-7.759.113-9.4-3.117C.233 12.175 0 10.754 0 9.425c0-1.746.58-3.396 1.73-4.733a6.522 6.522 0 0 1-.322-2.034c0-.895.205-1.345.609-2.158C3.904.5 5.112.875 6.55 2a15.96 15.96 0 0 1 3.696-.417c1.125 0 2.258.121 3.35.384C15.012.854 16.22.5 18.087.5c.409.813.609 1.262.609 2.158a6.43 6.43 0 0 1-.321 2.009C19.521 6.017 20 7.679 20 9.425Zm-2.68 2.104c0-1.829-1.112-3.441-3.062-3.441-.787 0-1.541.141-2.333.25-.62.095-1.242.133-1.88.133-.633 0-1.253-.038-1.878-.133-.78-.109-1.542-.25-2.334-.25-1.95 0-3.062 1.612-3.062 3.441 0 3.659 3.35 4.221 6.266 4.221h2.009c2.929 0 6.275-.558 6.275-4.22Zm-3.44-2.296c-1.076 0-1.53 1.425-1.53 2.296 0 .871.454 2.296 1.53 2.296 1.074 0 1.528-1.425 1.528-2.296 0-.87-.454-2.296-1.529-2.296Z"/>
</svg>
