<svg xmlns="http://www.w3.org/2000/svg" width="32" height="32" fill="none" viewBox="0 0 32 32">
  <path fill="#E65100" d="M27.333 3.333H4.667l2 22.667L16 28.667 25.333 26l2-22.667Z"/>
  <path fill="#FF6D00" d="M16 5.333V26.6l7.467-2.133 1.666-19.134H16Z"/>
  <path fill="#fff" d="M16 16.667V14h5.733l-.466 7.667L16 23.4v-2.8l2.733-.933.2-3H16Zm5.933-5.334.2-2.666H16v2.666h5.933Z"/>
  <path fill="#EEE" d="M16 20.6v2.8l-5.267-1.733L10.467 18h2.666l.134 1.667L16 20.6Zm-3.267-9.267H16V8.667H9.933l.467 8H16V14h-3.067l-.2-2.667Z"/>
</svg>
