<svg xmlns="http://www.w3.org/2000/svg" width="32" height="32" fill="none" viewBox="0 0 32 32">
  <path fill="#F44336" d="M15.767 16.599c-.666-1.073-1.148-1.962-1.817-3.637-1.13-2.829 6.877-5.385 3.63-10.296 1.407 3.393-5.051 5.49-5.651 8.315-.549 2.599 3.834 5.618 3.838 5.618Z"/>
  <path fill="#F44336" d="M15.919 11.513c-.128 1.678 1.486 2.572 1.532 3.797.038.997-.964 1.829-.964 1.829s1.818-.358 2.386-1.879c.63-1.69-1.223-2.846-1.032-4.199.178-1.292 4.02-3.695 4.02-3.695s-5.654.375-5.942 4.147Z"/>
  <path fill="#1565C0" d="M21.39 16.703c1.169-.262 2.155.482 2.155 1.34 0 1.934-2.681 3.762-2.681 3.762s4.15-.494 4.15-3.67c0-2.1-2.038-2.624-3.625-1.432Zm-1.97 1.56s1.293-.922 1.638-1.268c-3.175.674-10.425.765-10.425.18 0-.54 2.338-1.092 2.338-1.092s-5.182-.075-5.182 1.454c0 1.593 6.783 1.707 11.63.726Z"/>
  <path fill="#1565C0" d="M18.623 19.714c-3.006 1-8.542.68-6.902-.662-.799 0-1.983.642-1.983 1.26 0 1.237 5.988 2.193 10.42.38l-1.535-.978Z"/>
  <path fill="#1565C0" d="M12.457 21.826c-1.09 0-1.796.703-1.796 1.215 0 1.594 6.506 1.754 9.084.136l-1.638-1.088c-1.926.847-6.764.964-5.65-.263Z"/>
  <path fill="#1565C0" d="M24.187 24.421c0-.624-.703-.918-.955-1.058 1.485 3.582-14.878 3.304-14.878 1.189 0-.48 1.205-.951 2.318-.729l-.947-.559C7.507 22.916 6 23.891 6 24.678c0 3.669 18.187 3.492 18.187-.257Z"/>
  <path fill="#1565C0" d="M26 25.736c-2.764 2.73-9.773 3.725-16.82 2.038 7.047 3.002 16.787 1.311 16.82-2.038Z"/>
</svg>
