<svg xmlns="http://www.w3.org/2000/svg" width="32" height="32" fill="none" viewBox="0 0 32 32">
  <path fill="#FFD600" d="M4 28V4h24v24H4Z"/>
  <path fill="#000001" d="M19.692 21.965c.461.749.963 1.467 2.025 1.467.892 0 1.36-.443 1.36-1.057 0-.734-.484-.994-1.466-1.422l-.538-.229c-1.552-.659-2.585-1.484-2.585-3.227 0-1.607 1.23-2.83 3.152-2.83 1.369 0 2.352.474 3.061 1.716l-1.676 1.071c-.368-.659-.767-.918-1.385-.918-.63 0-1.03.398-1.03.918 0 .643.4.903 1.323 1.3l.538.23c1.83.78 2.862 1.575 2.862 3.365 0 1.928-1.522 2.984-3.566 2.984-2 0-3.135-1.003-3.767-2.245l1.692-1.123Zm-7.724.054c.337.604.85 1.069 1.587 1.069.706 0 1.112-.279 1.112-1.362v-7.06h2.222v7.401c0 2.245-1.302 3.266-3.204 3.266-1.718 0-2.958-1.164-3.463-2.245l1.746-1.069Z"/>
</svg>
