<svg xmlns="http://www.w3.org/2000/svg" width="32" height="32" fill="none" viewBox="0 0 32 32">
  <path fill="#5D4037" d="M28 11.533c0 13.667-12 17.8-12 17.8S4 25.2 4 11.533c0-1.666.133-3.066.267-4.2.2-1.666 1.333-3 2.933-3.4 2.067-.6 5.333-1.266 8.8-1.266 3.467 0 6.733.666 8.867 1.266 1.6.4 2.733 1.8 2.933 3.4.067 1.134.2 2.6.2 4.2Z"/>
  <path fill="#4CAF50" d="M16 4.667c3.267 0 6.333.666 8.333 1.2.8.2 1.334.866 1.467 1.733.133 1.267.2 2.6.2 3.933 0 10.4-7.667 14.6-10 15.6-2.333-1.066-10-5.266-10-15.6 0-1.333.067-2.666.2-3.933a1.92 1.92 0 0 1 1.467-1.733c2-.534 5.066-1.2 8.333-1.2Zm0-2c-3.467 0-6.733.666-8.867 1.266-1.533.4-2.733 1.8-2.866 3.4a36.088 36.088 0 0 0-.267 4.2c0 13.667 12 17.8 12 17.8s12-4.133 12-17.8a35.09 35.09 0 0 0-.267-4.2c-.2-1.666-1.333-3-2.933-3.4-2.067-.6-5.333-1.266-8.8-1.266Z"/>
  <path fill="#DCEDC8" d="M15.333 18.667h1.334V24h-1.334v-5.333Z"/>
  <path fill="#4CAF50" d="M16 6.667S12 10 12 15.333C12 18.8 14.2 21 15.333 22L16 20l.667 2C17.8 21 20 18.8 20 15.333c0-5.333-4-8.666-4-8.666Z"/>
  <path fill="#81C784" d="M16 6.667S12 10 12 15.333C12 18.8 14.2 21 15.333 22L16 20V6.667Z"/>
</svg>
