<svg xmlns="http://www.w3.org/2000/svg" width="32" height="32" fill="none" viewBox="0 0 32 32">
  <path fill="#F50057" d="M16.333 21.92s-.006-.027-.013-.08c.013.053.013.08.013.08ZM18.25 5.75s-.25-.917.083-1.667c.334-.75.334-1.25-.333-2 1.333-.083 1.833.834 1.833.834l.017.106c.079.51-.185.996-.63 1.258-.407.24-.845.677-.97 1.469Z"/>
  <path fill="#F50057" d="M27.753 24.16c.014-.14.227-2.027-.253-2.907-1 2.827-2 5.414-4.913 7.247.413-.833 1.08-2.167 1.746-4.167-2 2.667-6 5.334-9 5.5 2.027-1.12 3.167-2.56 3.667-3.5 0 0-1.167.334-2.587.5 1.92-1.166 3.254-3.246 2.587-6.5-1.333 4.167-3.167 5.5-5.587 5.747-2.413.253-4.58-1-4.58-1l.834-.08S7.5 23.333 8.253 21.167a2.01 2.01 0 0 1 .12-.3c.547-1.214 2.407-.6 2.214.713v.007s.58 1.58 2.16 1.16c.506-.827.84-1.667.84-1.667l.246 1.087s1.167-.5 1.167-1.42c1 .38 1.253.853 1.313 1.06-.173-.934-1.68-7.354-9.66-7.26L5.26 15.84c-.093.087-.24.013-.227-.107l.107-1.066.093-.094c-.026.007-.06 0-.086 0l-.007.094-.547.506c-.093.087-.24.014-.226-.106l.066-.68c-1.16-.494-1.266-1.8-1.266-1.8s-1.447-.407-.834-2.254c.334-1 1.134-1.1 1.474-1.02.433.1.88.107 1.293-.06.6-.24 1.367-.7 1.9-1.586C8 6 9.5 5.333 12.747 5.333c4.3 0 6.033 1.32 6.233 1.48-.12-.14-.847-1.106.687-2.56 1.513-1.44 1.24-1.78 1.18-1.833.226.067 3.166 1.067 3.486 4.913.334 4-4.333 4.834-4.333 4.834s6 1.166 6.08-4.5c1.173.666 3.587 3.166 3.92 8.586.327 5.254-2.107 7.767-2.247 7.907Z"/>
  <path fill="#F50057" d="m5.233 14.573-.093.094.007-.094c.026 0 .06.007.086 0Z"/>
  <path fill="#F50057" d="m5.233 14.573-.093.094.007-.094c.026 0 .06.007.086 0Z"/>
</svg>
