<svg xmlns="http://www.w3.org/2000/svg" width="32" height="32" fill="none" viewBox="0 0 32 32">
  <path fill="#21A366" d="M16.005 30.28c-.383 0-.762-.1-1.098-.294l-3.493-2.069c-.522-.292-.267-.395-.095-.454.696-.244.836-.299 1.579-.721.078-.045.18-.029.26.019l2.684 1.592a.352.352 0 0 0 .324 0l10.465-6.04a.33.33 0 0 0 .16-.283V9.955a.335.335 0 0 0-.162-.288L16.169 3.63a.323.323 0 0 0-.322 0L5.388 9.666a.333.333 0 0 0-.166.285v12.076a.32.32 0 0 0 .163.28l2.866 1.656c1.556.778 2.506-.139 2.506-1.061V10.984c0-.17.134-.301.304-.301h1.326a.3.3 0 0 1 .301.301v11.924c0 2.075-1.131 3.267-3.099 3.267-.605 0-1.082 0-2.412-.655L4.43 23.938a2.214 2.214 0 0 1-1.098-1.91V9.952A2.2 2.2 0 0 1 4.43 8.045L14.907 2a2.295 2.295 0 0 1 2.2 0L27.57 8.047a2.21 2.21 0 0 1 1.097 1.908V22.03c0 .783-.422 1.514-1.098 1.907L17.107 29.98a2.198 2.198 0 0 1-1.103.293"/>
  <path fill="#21A366" d="M19.237 21.958c-4.578 0-5.538-2.102-5.538-3.865 0-.167.135-.301.303-.301h1.352c.15 0 .275.109.299.256.204 1.377.812 2.072 3.58 2.072 2.206 0 3.144-.498 3.144-1.668 0-.673-.268-1.173-3.694-1.509-2.866-.282-4.636-.914-4.636-3.206 0-2.111 1.78-3.368 4.764-3.368 3.35 0 5.012 1.163 5.22 3.662a.304.304 0 0 1-.303.33h-1.36a.3.3 0 0 1-.293-.236c-.327-1.449-1.118-1.912-3.27-1.912-2.406 0-2.686.838-2.686 1.466 0 .762.33.985 3.578 1.415 3.216.427 4.744 1.03 4.744 3.29 0 2.279-1.902 3.586-5.218 3.586"/>
</svg>
