<svg xmlns="http://www.w3.org/2000/svg" width="32" height="32" fill="none" viewBox="0 0 32 32">
  <path fill="#fff" d="M29.389 19.86c-.122-.553-.624-1.197-1.635-1.197a3.42 3.42 0 0 0-.69.079 7.795 7.795 0 0 1-1.228.16C28.591 14.21 30.38 7.69 28.609 5.428 26.275 2.446 23.133 2 21.468 2h-.157a9.793 9.793 0 0 0-1.908.226l-2.389.516a9.336 9.336 0 0 0-1.002-.075h-.03l-.102-.001c-1.062 0-2.03.225-2.894.649l-.834-.329c-1.147-.452-2.872-.99-4.579-.99-.096 0-.191.002-.287.005-1.681.061-3.125.699-4.177 1.845-1.312 1.43-1.909 3.523-1.774 6.22C1.342 10.207 2.974 24 7.6 24h.059c.601-.015 1.174-.257 1.709-.719.409.307.937.488 1.43.56.325.077.91.186 1.612.186.856 0 1.628-.176 2.293-.492 0 .586-.004 1.329-.01 2.278l-.001.05.003.05c.065.946.228 1.799.474 2.468.701 1.906 1.911 2.956 3.408 2.956.062 0 .125-.002.189-.006 1.23-.076 2.478-.768 3.336-1.848.929-1.17 1.143-2.405 1.226-3.351l.005-.058v-2.778l.069.007.29.025.029.003.028.001c.082.004.168.005.254.005 1.004 0 2.241-.26 3.077-.649.8-.37 2.626-1.39 2.309-2.828Z"/>
  <path fill="#0277BD" d="M22 22.667c0-.137.008-.251.012-.377L22 22l.021-.015c.1-1.782.591-2.468 1.117-2.86-.073-.102-.158-.212-.237-.316-.222-.292-.499-.653-.795-1.116l-.055-.106c-.044-.109-.152-.298-.29-.546-.788-1.426-2.43-4.394-1.306-6.269.492-.821 1.414-1.295 2.747-1.411C22.657 7.812 20.617 4.077 15.99 4h-.004c-4.027-.065-5.35 3.595-5.781 5.781a5.003 5.003 0 0 1 1.89-.404h.029c1.527.012 2.577.826 2.882 2.236.223 1.035.33 1.94.328 2.769-.007 1.813-.372 2.766-.695 3.607l-.102.272c-.083.223-.17.43-.253.625a8.199 8.199 0 0 0-.212.535 4 4 0 0 1 .75.253l.1.044a.736.736 0 0 1 .092.046c.565.344.917.873.993 1.489.04.332.034 2.595.02 4.57.058.856.203 1.576.395 2.097.273.743.954 2.16 2.263 2.08.913-.057 1.791-.613 2.374-1.347.625-.787.856-1.658.942-2.638v-3.348H22Z"/>
  <path fill="#0277BD" d="M10.076 19.278c-1.075-1.122-1.6-2.631-1.403-4.037.19-1.357.083-2.685.025-3.399a7.388 7.388 0 0 1-.031-.513l.002-.016-.002-.007c.081-2.014.858-5.191 2.996-7.08-1.042-.41-2.738-.95-4.33-.893C4.84 3.424 2.424 5.15 2.667 10c.091 1.82 2.148 12.735 4.96 12.667.402-.01.819-.268 1.248-.784a62.293 62.293 0 0 1 1.805-2.07 5.073 5.073 0 0 1-.604-.535Zm14.606-9.457c.01.102.001.19-.015.272.021.613-.045 1.208-.112 1.784-.05.424-.1.862-.114 1.302-.014.43.046.854.11 1.304.15 1.052.306 2.239-.51 3.624.15.198.282.381.388.558 3.073-4.983 4.312-10.907 3.13-12.417-1.789-2.285-4.265-2.947-6.226-2.915a8.432 8.432 0 0 0-1.649.196c3.384 1.64 4.891 5.155 4.998 6.292Zm2.651 10.226c-1.776.367-2.631.172-3.046-.084-.066.048-.133.089-.195.127-.248.15-.64.389-.737 1.855.056.01.104.016.164.029l.29.026c.88.04 2.033-.207 2.709-.52 1.457-.677 2.25-1.729.815-1.433Zm-12.651 1.366c-.025-.199-.132-.36-.328-.488l-.072-.032c-.24-.106-.513-.226-.949-.226h-.002a3.256 3.256 0 0 1-.254.012c-.034 0-.068-.004-.103-.006-.316.244-.765.432-1.877.66-1.987.506-.814 1.104-.052 1.196.737.185 2.49.41 3.654-.539a9.15 9.15 0 0 0-.017-.577Z"/>
  <path fill="#0277BD" d="M13.787 12.334c-.194.201-.502.377-.841.323-.552-.09-.975-.756-.945-1.006.03-.249.501-.379 1.052-.29.192.032.366.086.512.152-.213-.458-.599-.723-1.188-.788-1.043-.116-2.15.43-2.373.732l.022.278c.062.764.177 2.189-.033 3.691-.139.99.262 2.113 1.044 2.93.505.527 1.094.86 1.676.959.074-.319.206-.63.342-.95.075-.177.155-.365.23-.568l.108-.285c.296-.77.6-1.567.606-3.135a11.018 11.018 0 0 0-.212-2.043Zm9.444 2.337c-.069-.486-.14-.989-.123-1.535.015-.495.07-.961.123-1.413.041-.355.073-.696.092-1.033-.86.071-1.43.32-1.701.739a1.96 1.96 0 0 1 .379-.086c.594-.078 1.028.094 1.078.424.037.242-.168.47-.258.558a1.174 1.174 0 0 1-.654.325 1.13 1.13 0 0 1-.76-.192c.074 1.315 1.044 3.075 1.521 3.938.102.185.18.332.246.459.262-.746.165-1.426.057-2.184Z"/>
</svg>
