<svg xmlns="http://www.w3.org/2000/svg" width="32" height="32" fill="none" viewBox="0 0 32 32">
  <path fill="#61DAFB" d="M30.02 12.89c0-1.918-2.402-3.734-6.083-4.861.85-3.752.472-6.737-1.192-7.693-.383-.224-.831-.33-1.32-.33V1.32c.27 0 .489.054.672.154.802.46 1.15 2.212.879 4.465a18.125 18.125 0 0 1-.301 1.735 28.591 28.591 0 0 0-3.746-.643 28.748 28.748 0 0 0-2.454-2.95c1.923-1.787 3.728-2.766 4.955-2.766V0c-1.622 0-3.746 1.156-5.893 3.162C13.389 1.168 11.266.024 9.644.024v1.315c1.22 0 3.032.973 4.955 2.75a27.861 27.861 0 0 0-2.437 2.943c-1.333.141-2.595.36-3.751.649a17.79 17.79 0 0 1-.307-1.711c-.277-2.254.065-4.006.861-4.472.177-.106.407-.153.679-.153V.029C9.148.03 8.7.136 8.31.36c-1.657.957-2.029 3.936-1.174 7.676-3.669 1.132-6.058 2.943-6.058 4.855 0 1.917 2.4 3.734 6.082 4.86-.85 3.753-.472 6.737 1.192 7.693.383.224.831.33 1.327.33 1.622 0 3.746-1.156 5.893-3.162 2.148 1.994 4.271 3.139 5.893 3.139.496 0 .944-.106 1.334-.33 1.657-.956 2.029-3.935 1.174-7.675 3.657-1.127 6.046-2.944 6.046-4.855Zm-7.681-3.935a26.56 26.56 0 0 1-.797 2.33 27.851 27.851 0 0 0-.773-1.416c-.271-.472-.56-.932-.85-1.38.838.124 1.647.277 2.42.466Zm-2.702 6.283c-.46.796-.932 1.551-1.422 2.253a30.734 30.734 0 0 1-5.321.006 30.74 30.74 0 0 1-2.655-4.59A31.438 31.438 0 0 1 12.882 8.3a30.698 30.698 0 0 1 5.321-.006 30.76 30.76 0 0 1 2.655 4.59c-.372.79-.779 1.58-1.221 2.354Zm1.905-.767c.31.768.581 1.552.814 2.348-.773.188-1.587.348-2.43.472.289-.455.578-.92.85-1.399.27-.471.524-.95.766-1.421Zm-5.982 6.294a24.336 24.336 0 0 1-1.64-1.888c.531.024 1.074.042 1.623.042.554 0 1.103-.012 1.64-.042a23.005 23.005 0 0 1-1.623 1.888Zm-4.389-3.474a26.616 26.616 0 0 1-2.418-.467c.218-.76.49-1.545.796-2.33.242.472.496.944.773 1.416s.56.932.85 1.38Zm4.36-12.277a24.297 24.297 0 0 1 1.64 1.888 36.51 36.51 0 0 0-1.622-.041c-.555 0-1.104.012-1.64.041a23.043 23.043 0 0 1 1.622-1.888ZM11.165 8.49a32.517 32.517 0 0 0-1.616 2.814 25.25 25.25 0 0 1-.814-2.348 28.643 28.643 0 0 1 2.43-.466Zm-5.338 7.386c-2.089-.891-3.44-2.06-3.44-2.985 0-.927 1.351-2.1 3.44-2.985a18.164 18.164 0 0 1 1.634-.596c.336 1.156.779 2.36 1.327 3.593a27.927 27.927 0 0 0-1.31 3.574 17.928 17.928 0 0 1-1.651-.601ZM9 24.305c-.803-.46-1.15-2.213-.88-4.466.066-.555.172-1.139.301-1.734 1.157.283 2.42.501 3.746.642a28.758 28.758 0 0 0 2.455 2.95c-1.924 1.788-3.729 2.767-4.956 2.767a1.408 1.408 0 0 1-.666-.16Zm13.992-4.496c.277 2.254-.064 4.006-.861 4.472-.177.106-.407.153-.678.153-1.221 0-3.032-.973-4.956-2.749a27.861 27.861 0 0 0 2.437-2.943 27.527 27.527 0 0 0 3.752-.65c.135.597.241 1.169.306 1.717Zm2.272-3.934c-.508.218-1.062.413-1.635.596a28.334 28.334 0 0 0-1.327-3.593 27.86 27.86 0 0 0 1.31-3.575c.584.183 1.138.383 1.657.602 2.089.89 3.44 2.059 3.44 2.985-.006.926-1.357 2.1-3.445 2.985Z"/>
  <path fill="#61DAFB" d="M15.543 15.586a2.696 2.696 0 1 0 0-5.392 2.696 2.696 0 0 0 0 5.392Zm-13.15 14.83h-.89v1.532H1v-3.789h1.254c.427 0 .755.097.984.292.23.194.346.477.346.848 0 .236-.064.441-.193.617a1.134 1.134 0 0 1-.53.392l.89 1.609v.03h-.537l-.822-1.532Zm-.89-.41h.767c.248 0 .445-.064.59-.192a.649.649 0 0 0 .222-.515c0-.234-.07-.414-.211-.539-.139-.125-.34-.188-.604-.19h-.765v1.437ZM5.378 32c-.381 0-.692-.125-.931-.375-.24-.251-.36-.587-.36-1.007v-.088c0-.28.054-.529.16-.747.107-.22.256-.392.447-.515.193-.125.4-.188.625-.188.366 0 .65.12.853.362.203.241.305.586.305 1.036v.2H4.57c.007.278.088.502.242.674a.77.77 0 0 0 .593.255c.17 0 .314-.035.432-.104.118-.07.222-.161.31-.276l.294.23c-.236.362-.59.543-1.062.543Zm-.06-2.524a.64.64 0 0 0-.489.213c-.131.14-.213.338-.244.593h1.41v-.036c-.014-.244-.08-.434-.198-.567a.603.603 0 0 0-.478-.203Zm3.456 2.472a1.005 1.005 0 0 1-.067-.297 1.074 1.074 0 0 1-.802.349c-.277 0-.506-.078-.684-.234a.768.768 0 0 1-.266-.599c0-.293.111-.52.333-.682.224-.163.538-.244.942-.244h.47v-.221a.536.536 0 0 0-.151-.401c-.1-.1-.25-.15-.445-.15a.701.701 0 0 0-.432.13c-.116.086-.174.19-.174.314h-.484c0-.14.05-.276.148-.406.1-.132.236-.236.406-.312a1.38 1.38 0 0 1 .564-.115c.325 0 .579.082.763.245.184.161.28.384.286.669v1.296c0 .258.033.464.1.616v.042h-.506Zm-.799-.367a.85.85 0 0 0 .43-.117.71.71 0 0 0 .294-.304v-.578h-.378c-.59 0-.884.172-.884.518 0 .15.05.268.15.353.101.085.23.128.388.128Zm3.09.026a.694.694 0 0 0 .45-.156.549.549 0 0 0 .213-.39h.455a.873.873 0 0 1-.166.46 1.1 1.1 0 0 1-.412.349c-.17.087-.35.13-.54.13-.384 0-.69-.128-.917-.383-.225-.256-.338-.607-.338-1.05v-.082c0-.274.05-.517.15-.73.101-.214.245-.38.433-.498.189-.118.412-.177.668-.177.316 0 .578.095.786.284.21.19.322.434.336.736h-.455a.656.656 0 0 0-.666-.624.676.676 0 0 0-.57.265c-.134.175-.2.43-.2.763v.09c0 .325.066.575.2.75.133.175.324.263.572.263Zm2.312-3.156v.681h.526v.372h-.526v1.746c0 .113.024.198.07.256.048.055.127.083.24.083.056 0 .132-.01.229-.031v.39c-.127.035-.25.052-.37.052-.215 0-.377-.065-.486-.195-.11-.13-.164-.315-.164-.555v-1.745h-.513v-.373h.513v-.681h.481Zm5.4 3.497h-.502l-1.908-2.92v2.92h-.502v-3.789h.502l1.913 2.933v-2.933h.497v3.789Zm2.55 0a1.004 1.004 0 0 1-.068-.297 1.074 1.074 0 0 1-.801.349c-.278 0-.506-.078-.684-.234a.768.768 0 0 1-.266-.599c0-.293.111-.52.333-.682.224-.163.538-.244.942-.244h.469v-.221a.536.536 0 0 0-.151-.401c-.1-.1-.25-.15-.445-.15a.701.701 0 0 0-.432.13c-.117.086-.175.19-.175.314h-.484c0-.14.05-.276.149-.406.1-.132.236-.236.406-.312.171-.076.36-.115.564-.115.325 0 .579.082.763.245.184.161.279.384.286.669v1.296c0 .258.033.464.099.616v.042h-.505Zm-.799-.367a.85.85 0 0 0 .43-.117.71.71 0 0 0 .294-.304v-.578h-.378c-.59 0-.884.172-.884.518 0 .15.05.268.15.353.101.085.23.128.388.128Zm2.613-3.13v.681h.525v.372h-.525v1.746c0 .113.023.198.07.256.047.055.127.083.24.083.055 0 .131-.01.228-.031v.39c-.126.035-.25.052-.37.052-.214 0-.376-.065-.486-.195-.109-.13-.164-.315-.164-.555v-1.745h-.512v-.373h.512v-.681h.482Zm1.613 3.497h-.481v-2.816h.481v2.816Zm-.52-3.563a.29.29 0 0 1 .07-.197c.049-.054.12-.08.213-.08.094 0 .165.026.214.08.048.054.073.12.073.198a.275.275 0 0 1-.073.195c-.049.052-.12.078-.214.078-.093 0-.165-.026-.213-.078a.281.281 0 0 1-.07-.195Zm2.222 2.91.697-2.163h.492l-1.01 2.816h-.366l-1.02-2.816h.491l.716 2.163ZM29.24 32c-.381 0-.692-.125-.931-.375-.24-.251-.36-.587-.36-1.007v-.088c0-.28.053-.529.16-.747.107-.22.256-.392.447-.515.192-.125.4-.188.624-.188.366 0 .65.12.854.362.203.241.304.586.304 1.036v.2h-1.907c.007.278.088.502.242.674a.77.77 0 0 0 .593.255.84.84 0 0 0 .432-.104c.118-.07.221-.161.31-.276l.294.23c-.236.362-.59.543-1.062.543Zm-.06-2.524a.64.64 0 0 0-.489.213c-.132.14-.213.338-.244.593h1.41v-.036c-.014-.244-.08-.434-.198-.567a.603.603 0 0 0-.479-.203Z"/>
</svg>
