<svg xmlns="http://www.w3.org/2000/svg" width="32" height="32" fill="none" viewBox="0 0 32 32">
  <path fill="#F06292" d="M26.578 17.304a6.02 6.02 0 0 0-2.657.619c-.272-.544-.548-1.022-.594-1.377-.054-.415-.117-.663-.052-1.157.066-.494.352-1.194.348-1.246-.004-.053-.064-.304-.656-.309-.591-.004-1.097.114-1.156.27a5.82 5.82 0 0 0-.244.874c-.104.536-1.181 2.449-1.792 3.449-.2-.391-.37-.735-.406-1.007-.054-.415-.116-.663-.051-1.157s.351-1.194.347-1.246c-.004-.053-.064-.304-.655-.309-.591-.004-1.097.114-1.157.27-.059.156-.123.52-.244.874-.121.353-1.552 3.543-1.928 4.37-.191.421-.357.76-.474.99h-.001l-.02.04c-.1.197-.16.306-.16.306l.003.004c-.08.145-.166.279-.208.279-.029 0-.088-.385.013-.913.213-1.107.725-2.832.72-2.892-.003-.03.095-.331-.334-.489-.417-.152-.566.102-.604.103-.037 0-.064.09-.064.09s.465-1.94-.887-1.94c-.845 0-2.016.924-2.592 1.762-.364.199-1.144.624-1.97 1.078l-.948.522-.064-.07c-1.639-1.748-4.668-2.985-4.54-5.336.046-.855.344-3.105 5.822-5.835 4.487-2.236 8.08-1.62 8.7-.257.887 1.949-1.92 5.57-6.58 6.092-1.775.2-2.71-.49-2.943-.745-.245-.27-.281-.282-.373-.232-.148.083-.054.321 0 .463.14.362.71 1.004 1.684 1.324.856.281 2.941.435 5.462-.54 2.824-1.092 5.028-4.13 4.38-6.67-.658-2.583-4.941-3.432-8.994-1.992-2.416.857-5.027 2.203-6.905 3.959-2.233 2.088-2.589 3.906-2.442 4.665.521 2.699 4.24 4.456 5.73 5.758l-.205.113c-.747.37-3.582 1.854-4.292 3.421-.804 1.778.128 3.054.746 3.226 1.912.532 3.875-.425 4.93-1.999 1.055-1.572.926-3.621.442-4.556l-.018-.034.584-.345c.38-.223.753-.431 1.076-.607-.181.496-.314 1.091-.382 1.95-.082 1.01.332 2.314.874 2.828.238.226.525.231.706.231.63 0 .918-.524 1.234-1.144.388-.76.733-1.645.733-1.645s-.432 2.39.745 2.39c.43 0 .861-.556 1.054-.84v.005l.034-.055c.044-.068.07-.112.07-.112l.002-.012c.172-.3.555-.982 1.128-2.108.742-1.455 1.452-3.278 1.452-3.278s.066.446.283 1.183c.127.433.398.913.612 1.373-.172.238-.277.375-.277.375l.002.007c-.137.183-.291.38-.452.572-.586.696-1.282 1.492-1.376 1.722-.11.27-.084.469.129.63.155.116.431.135.72.116a3.28 3.28 0 0 0 1.078-.246c.285-.1.616-.258.927-.487.574-.422.92-1.025.886-1.825-.018-.441-.158-.878-.336-1.29l.156-.226a24.53 24.53 0 0 0 1.607-2.776s.066.445.283 1.182c.109.373.326.78.52 1.179-.85.691-1.378 1.495-1.561 2.021-.339.975-.073 1.416.424 1.517.225.045.544-.058.783-.16a3.61 3.61 0 0 0 .991-.509c.574-.422 1.126-1.012 1.093-1.812a3.4 3.4 0 0 0-.248-1.072c.721-.3 1.654-.467 2.844-.328 2.551.298 3.051 1.89 2.956 2.557-.096.667-.631 1.033-.81 1.144-.179.11-.234.15-.219.231.022.12.105.116.257.09.21-.036 1.34-.542 1.388-1.773.061-1.564-1.436-3.28-4.087-3.266Zm-19.665 6.63c-.845.921-2.025 1.27-2.532.976-.546-.317-.33-1.674.707-2.653.632-.596 1.448-1.145 1.99-1.483l.523-.315.058-.032-.001-.001c.043-.025.086-.051.13-.079.379 1.393.013 2.619-.875 3.586Zm6.157-4.185c-.294.717-.91 2.553-1.285 2.454-.322-.084-.518-1.48-.064-2.853.228-.691.716-1.517 1.002-1.838.462-.516.97-.685 1.093-.475.157.266-.561 2.262-.746 2.712Zm5.086 2.426c-.125.066-.24.106-.292.075-.04-.023.051-.11.051-.11s.636-.684.887-.995c.146-.182.315-.397.499-.637l.002.071c-.002.82-.794 1.374-1.147 1.596Zm3.918-.893c-.093-.066-.077-.28.229-.947a3.58 3.58 0 0 1 .87-1.124c.056.173.089.339.088.494-.006 1.032-.742 1.417-1.187 1.577Z"/>
</svg>
