<svg xmlns="http://www.w3.org/2000/svg" width="32" height="32" fill="none" viewBox="0 0 32 32">
  <g clip-path="url(#a)">
    <path fill="#010101" d="M12.056.923C16.089-.112 20.547.49 24.104 2.687c4.48 2.679 7.405 7.747 7.48 12.963.163 5.269-2.583 10.493-6.996 13.358-4.912 3.305-11.706 3.431-16.722.29-5.112-3.05-8.097-9.205-7.33-15.114.617-6.244 5.44-11.75 11.52-13.261Z"/>
    <path fill="#fff" d="M11.438 3.475c7.62-3.05 16.968 2.583 17.756 10.754 1.228 7.352-4.874 14.824-12.323 15.04-7.085.707-13.931-5.299-14.132-12.413-.529-5.76 3.267-11.475 8.7-13.38Z"/>
    <path fill="#010101" d="M12.205 15.211c3.415-2.79 6.757-5.678 10.247-8.387-1.83 2.813-3.713 5.589-5.544 8.402-1.57.007-3.14.008-4.703-.015Zm2.887 1.556c1.578 0 3.148 0 4.718.022-3.438 2.776-6.764 5.685-10.262 8.387 1.83-2.813 3.713-5.596 5.544-8.41Z"/>
  </g>
  <defs>
    <clipPath id="a">
      <path fill="#fff" d="M0 0h32v32H0z"/>
    </clipPath>
  </defs>
</svg>
