<svg xmlns="http://www.w3.org/2000/svg" width="32" height="32" fill="none" viewBox="0 0 32 32">
  <path fill="#1976D2" d="M28 4H4v24h24V4Z"/>
  <path fill="#fff" d="M18.327 14.667H9.485v2.176h3.171v9.824h2.513v-9.824h3.158v-2.176Zm7.803 2.723s-1.192-.795-2.539-.795c-1.346 0-1.83.64-1.83 1.324 0 1.765 4.92 1.588 4.92 5.141 0 5.473-7.503 3.045-7.503 3.045V23.48s1.435 1.081 3.155 1.081c1.721 0 1.656-1.125 1.656-1.28 0-1.632-4.877-1.632-4.877-5.252 0-4.92 7.105-2.979 7.105-2.979l-.088 2.34Z"/>
</svg>
