<?xml version="1.0" encoding="UTF-8" standalone="no"?>
<svg
   id="Camada_2"
   viewBox="0 0 290 290.00001"
   version="1.1"
   sodipodi:docname="icon.svg"
   width="290"
   height="290"
   inkscape:version="1.2.2 (1:1.2.2+202212051552+b0a8486541)"
   inkscape:export-filename="icon.png"
   inkscape:export-xdpi="264.82758"
   inkscape:export-ydpi="264.82758"
   xmlns:inkscape="http://www.inkscape.org/namespaces/inkscape"
   xmlns:sodipodi="http://sodipodi.sourceforge.net/DTD/sodipodi-0.dtd"
   xmlns:xlink="http://www.w3.org/1999/xlink"
   xmlns="http://www.w3.org/2000/svg"
   xmlns:svg="http://www.w3.org/2000/svg">
  <sodipodi:namedview
     id="namedview26"
     pagecolor="#ffffff"
     bordercolor="#000000"
     borderopacity="0.25"
     inkscape:showpageshadow="2"
     inkscape:pageopacity="0.0"
     inkscape:pagecheckerboard="0"
     inkscape:deskcolor="#d1d1d1"
     showgrid="false"
     inkscape:zoom="2.0970685"
     inkscape:cx="166.66122"
     inkscape:cy="140.43413"
     inkscape:window-width="2502"
     inkscape:window-height="1016"
     inkscape:window-x="58"
     inkscape:window-y="27"
     inkscape:window-maximized="1"
     inkscape:current-layer="Camada_2" />
  <defs
     id="defs14">
    <linearGradient
       inkscape:collect="always"
       id="linearGradient981">
      <stop
         style="stop-color:#1c0c32;stop-opacity:1;"
         offset="0"
         id="stop977" />
      <stop
         style="stop-color:#14276c;stop-opacity:1;"
         offset="1"
         id="stop979" />
    </linearGradient>
    <style
       id="style2">.cls-1{fill:url(#Gradiente_sem_nome_127);}.cls-2{fill:#fff;}.cls-3{fill:url(#Gradiente_sem_nome_132);}</style>
    <linearGradient
       id="Gradiente_sem_nome_127"
       x1="221.07001"
       y1="-80.800003"
       x2="-66.32"
       y2="398.57001"
       gradientUnits="userSpaceOnUse">
      <stop
         offset=".14"
         stop-color="#42def2"
         id="stop4" />
      <stop
         offset=".57"
         stop-color="#902fdc"
         id="stop6" />
    </linearGradient>
    <radialGradient
       id="Gradiente_sem_nome_132"
       cx="149.92"
       cy="89.68"
       fx="149.92"
       fy="89.68"
       r="234.24001"
       gradientUnits="userSpaceOnUse">
      <stop
         offset=".14"
         stop-color="#38266f"
         id="stop9" />
      <stop
         offset=".57"
         stop-color="#902fdc"
         stop-opacity="0"
         id="stop11" />
    </radialGradient>
    <linearGradient
       inkscape:collect="always"
       xlink:href="#linearGradient981"
       id="linearGradient983"
       x1="-0.8287937"
       y1="-0.13503988"
       x2="290.97992"
       y2="289.97116"
       gradientUnits="userSpaceOnUse" />
  </defs>
  <rect
     style="fill:url(#linearGradient983);stroke-width:1.04819;fill-opacity:1"
     id="rect421"
     width="290"
     height="290"
     x="0"
     y="0" />
  <g
     id="Camada_1-2"
     transform="matrix(0.63779996,0,0,0.63779996,70.002206,53.600077)">
    <g
       id="g22">
      <path
         class="cls-1"
         d="m 42.41,286.61 c -7.78,0 -14.47,-2.24 -19.72,-4.95 C 7.45,273.79 -0.19,259.53 0,239.29 0.19,219.39 0.15,199.1 0.12,179.48 0.11,171.43 0.09,163.38 0.09,155.33 0.09,147.32 0.11,139.31 0.12,131.31 0.16,111.08 0.2,90.15 0,69.63 -0.22,46.93 12.29,35.27 22.82,29.49 37.45,21.46 53.69,22.74 68.54,33.09 L 88.93,47.3 c 34.33,23.92 69.84,48.67 104.62,73.23 v 0 c 11.79,8.32 18.57,20.88 18.61,34.46 0.04,14.11 -7.12,27.34 -19.65,36.3 -19.46,13.91 -39.37,27.79 -58.63,41.21 -7.29,5.08 -14.58,10.16 -21.86,15.25 -4.57,3.2 -9.16,6.36 -13.75,9.53 -8.9,6.14 -18.1,12.49 -26.9,18.9 -10.62,7.73 -20.44,10.43 -28.95,10.43 z m 29.44,-180.2 c -0.59,0 -1,0.23 -1.41,0.45 -1.42,0.78 -2.35,1.52 -2.32,4.55 0.1,10.59 0.08,21.34 0.06,31.73 0,4.08 -0.02,8.16 -0.02,12.24 0,4.1 0,8.2 0.01,12.31 0.02,10.08 0.04,20.49 -0.06,30.77 -0.04,4.51 0.92,5 1.85,5.48 1.14,0.59 2.43,1.26 6.02,-1.35 4.68,-3.41 9.48,-6.72 14.12,-9.92 2.32,-1.6 4.63,-3.2 6.93,-4.81 3.73,-2.61 7.46,-5.21 11.2,-7.81 9.8,-6.83 19.92,-13.88 29.78,-20.93 1.6,-1.14 2.51,-2.55 2.51,-3.85 0,-1.34 -1.03,-2.35 -1.89,-2.96 v 0 C 120.9,139.79 102.78,127.17 85.26,114.96 l -10.42,-7.27 c -1.4,-0.97 -2.31,-1.28 -2.99,-1.28 z"
         id="path16"
         style="fill:url(#Gradiente_sem_nome_127)" />
      <path
         class="cls-3"
         d="m 42.41,286.61 c -7.78,0 -14.47,-2.24 -19.72,-4.95 C 7.45,273.79 -0.19,259.53 0,239.29 0.19,219.39 0.15,199.1 0.12,179.48 0.11,171.43 0.09,163.38 0.09,155.33 0.09,147.32 0.11,139.31 0.12,131.31 0.16,111.08 0.2,90.15 0,69.63 -0.22,46.93 12.29,35.27 22.82,29.49 37.45,21.46 53.69,22.74 68.54,33.09 L 88.93,47.3 c 34.33,23.92 69.84,48.67 104.62,73.23 v 0 c 11.79,8.32 18.57,20.88 18.61,34.46 0.04,14.11 -7.12,27.34 -19.65,36.3 -19.46,13.91 -39.37,27.79 -58.63,41.21 -7.29,5.08 -14.58,10.16 -21.86,15.25 -4.57,3.2 -9.16,6.36 -13.75,9.53 -8.9,6.14 -18.1,12.49 -26.9,18.9 -10.62,7.73 -20.44,10.43 -28.95,10.43 z M 71.68,106.16 c -0.59,0 -1.01,0.23 -1.42,0.46 -1.42,0.78 -2.36,1.52 -2.33,4.56 0.11,10.81 0.08,21.19 0.06,31.84 0,4.09 -0.02,8.19 -0.02,12.28 0,4.11 0,8.23 0.01,12.35 0.02,10.11 0.04,20.56 -0.06,30.87 -0.04,4.52 0.92,5.02 1.86,5.5 1.14,0.59 2.44,1.26 6.04,-1.36 4.69,-3.42 9.51,-6.74 14.16,-9.95 2.32,-1.6 4.65,-3.21 6.96,-4.82 3.74,-2.62 7.49,-5.23 11.23,-7.84 9.83,-6.85 19.99,-13.93 29.88,-21 1.6,-1.15 2.52,-2.56 2.52,-3.86 0,-1.35 -1.03,-2.36 -1.9,-2.97 v 0 C 120.88,139.66 102.7,126.99 85.12,114.74 l -10.46,-7.29 c -1.4,-0.98 -2.31,-1.28 -3,-1.28 z"
         id="path18"
         style="fill:url(#Gradiente_sem_nome_132)" />
      <path
         class="cls-2"
         d="M 166.36,0 C 128.43,0 97.68,31.03 97.56,69.35 v 0 77.31 l 32.54,-17.53 0.51,-0.1 c 10.42,6.42 22.66,10.12 35.76,10.12 38,0 68.81,-31.15 68.81,-69.58 C 235.18,31.14 204.36,0 166.36,0 Z m -14.37,79.71 c -5.77,0 -10.45,-4.73 -10.45,-10.57 0,-5.84 4.68,-10.57 10.45,-10.57 5.77,0 10.45,4.73 10.45,10.57 0,5.84 -4.68,10.57 -10.45,10.57 z m 28.74,0.88 c -5.77,0 -10.45,-4.73 -10.45,-10.57 0,-5.84 4.68,-10.57 10.45,-10.57 5.77,0 10.45,4.73 10.45,10.57 0,5.84 -4.68,10.57 -10.45,10.57 z"
         id="path20" />
    </g>
  </g>
</svg>
